<svg xmlns="http://www.w3.org/2000/svg" viewBox="0 69.6 611.8 652.7" enable-background="new 0 69.6 611.8 652.7"><path fill="#ED1C2E" d="M522.1 556.9c-17.2 66.8-15.1 56.1-24 83.8-5.8 17.9-11.6 35.9-18.8 54.1-13-12.1-26.7-21.7-41.5-29.9-23.3-12.9-47.6-15.1-72.7-6-15.3 5.6-30.2 12.1-45.5 17.5-16.6 6-32.5 4.7-47.3-5.6-13.8-9.7-27.4-19.6-41.3-29.1-20.1-13.5-41.7-15.3-64.2-7.1-12.1 4.3-23.8 9.3-35.7 14-11.4 4.5-23.2 8.2-35.7 7.4-28.5-1.8-48.1-19.5-69-36.7 4.8-3.2 8.8-5.8 12.9-8.5 39.9-26.7 67.2-64.2 88.2-106.3 38.9-78.5 55.5-163.5 67.4-249.2 5.1-37.8 17.1-71.9 42-100.4 46.5-52.8 105.2-73 174.6-60.8 70.5 12.5 130.5 73.3 142.4 144.2 6.6 38.8 5.1 60.5.2 116.3.1.1-18.2 128.4-32 202.3z"/><path d="M310.7 395.8c-28 4.8-50.2-5.8-73.4-19.3-5-2.9-7.9-7.9-4.2-13.5 3.4-5.3 8.7-6.1 14-3.2l35.1 15.3c6.6 1.8 23.8 1 31.7.5.2-2.7.5-5.3 1.3-7.7 4.7-14.5 16.4-22.8 32.5-22.8h207.5c4.2-48.7 5.1-70.1-1-106.5-12-71.1-72-132-142.8-144.6-69.3-12.4-128.1 7.9-174.6 60.8-24.9 28.5-36.8 62.6-42 100.4-11.9 85.8-28.5 170.7-67.4 249.2-20.9 42.2-48.3 79.6-88.2 106.3-4 2.7-8 5.3-12.9 8.5 20.9 17.2 40.5 35.1 69 36.7 12.5.8 24.3-3.1 35.7-7.4 11.9-4.7 23.6-9.7 35.7-14 22.5-8.2 44.1-6.6 64.2 7.1 14 9.5 27.5 19.5 41.3 29.1 14.8 10.3 30.7 11.6 47.3 5.6 15.3-5.5 30.2-12.1 45.5-17.5 25.1-9.2 49.4-6.9 72.7 6 14.8 8.2 28.6 17.9 41.5 29.9 7.1-18.3 12.9-36.2 18.8-54.1 8-24.8 7.2-18.8 19.1-65.2h-103.89999999999999c-22.7 0-45.2.2-67.9 0-18-.2-31.7-14-31.7-32v-93c-6.4 1.6-26.9 6.4-32.3 7.2-17.9 2.7-35.9 2.1-53.6-1.8-3.1-.6-6.3-1.4-9-2.9-4.3-2.3-8.4-5.3-6-11.4 2.3-5.6 6.6-7.9 12.2-6.4 21.4 5.5 43 5.5 64.4 1.3 8.2-1.6 16.4-3.5 24.3-6.3m31.2-144.3c.2 7.2-1.8 13.4-5.3 18.8-8.2 13-24 12.7-32.2-.3-5.6-9-6.4-18.7-3.5-28.6 3.1-10.6 10.8-17.4 19.5-17.4 9.2-.2 16.6 6.6 19.9 17.9 1.1 3.3 1.9 6.7 1.6 9.6zm148 0c.2 15.8-10.1 29.3-22 28.6-11.9-.6-21.6-14.8-20.6-30.1 1.1-15.4 10.5-26.4 22-25.9 11.3.4 20.4 12.4 20.6 27.4z" fill="none"/><path fill="#010101" d="M8.2 606.6c9.3-5.1 18.7-10.5 27.2-16.9 36-27 60.7-63.2 79.2-103.4 34.6-75 50.4-155.1 61.1-236.2 9.5-70.9 44.6-124.5 107.5-156.5 71.4-36.2 143-31.4 209.3 15.1 53.1 37.2 80.4 89.6 84 154.1 1.4 28.2 2.6 36.4-1.6 82.2h-19.8c4.2-48.7 5.1-70.1-1-106.5-11.9-71-71.9-131.9-142.7-144.5-69.3-12.4-128.1 7.9-174.6 60.8-24.9 28.5-36.8 62.6-42 100.4-11.9 85.8-28.5 170.7-67.4 249.2-20.9 42.2-48.3 79.6-88.2 106.3-4 2.7-8 5.3-12.9 8.5 20.9 17.2 40.5 35.1 69 36.7 12.5.8 24.3-3.1 35.7-7.4 11.9-4.7 23.6-9.7 35.7-14 22.5-8.2 44.1-6.6 64.2 7.1 14 9.5 27.5 19.5 41.3 29.1 14.8 10.3 30.7 11.6 47.3 5.6 15.3-5.5 30.2-12.1 45.5-17.5 25.1-9.2 49.4-6.9 72.7 6 14.8 8.2 28.6 17.9 41.5 29.9 7.1-18.3 12.9-36.2 18.8-54.1 8-24.8 7.2-18.8 19.1-65.2h20.6c-11.3 45.4-26.9 91.9-43.6 136.4-4.7 12.4-11.7 13.7-21.2 4-12.4-12.7-26.4-23.5-41.7-32.5-19.8-11.7-40.7-13.7-62.3-5.3-14.6 5.8-29.1 12.1-43.9 17.2-21.2 7.2-42.2 6-61.3-6.8-13.4-9-26.4-18.2-39.3-27.8-17.2-12.9-35.6-14.3-55.2-6.4-14.2 5.6-28.2 11.6-42.5 16.7-18.5 6.6-37.2 7.2-55.8.5-25.9-9.7-47-26.4-66.1-45.7-7.4-8-6.4-13.8 3.4-19.1zM579 345h-231.5c-16.1 0-28 8.4-32.5 22.8-.8 2.6-1.1 5.1-1.3 7.7 2.4-.2 3.9-.3 3.9-.3 14.2-1.8 26.2 2.4 37.2 11.6 4 3.4 6.9 6.9 9 10.6h223.2c2.9 0 3.9.6 3.9 3.7l-.2 141.4c0 7.6-4 11.6-11.6 11.6h-232.60000000000002c-7.9 0-11.7-4-11.7-11.7v-99.1c-6.4 2.7-13.2 4.8-19.9 6.8-.3.2-.6.2-1.1.3v93c0 17.9 13.7 31.9 31.7 32 22.7.2 45.2 0 67.9 0h166.3c15.4 0 27.2-9 31.4-23.6.6-2.4.8-4.8.8-7.2v-168.4c.1-17.5-14.1-31.2-32.9-31.2z"/><path fill="#fff" d="M335 443.5v99.1c0 7.7 4 11.7 11.7 11.7h232.60000000000002c7.6 0 11.6-4 11.6-11.6 0-47.1 0-94.3.2-141.4 0-3.2-1-3.7-3.9-3.7h-223.20000000000002c6.1 11.6 3.2 24.5-9.2 34.3-6.3 4.8-12.9 8.5-19.8 11.6z"/><path fill="#010101" d="M363.8 397.6c-2.1-3.7-5-7.4-9-10.6-10.9-9-23-13.2-37.2-11.6 0 0-1.4.2-3.9.3-7.7.5-24.8 1-31.7-.5-6.9-1.4-35-15.2-35-15.2-5.5-2.9-10.6-2.1-14 3.2-3.7 5.8-.8 10.6 4.2 13.5 23.2 13.5 45.5 24.1 73.4 19.3l3.1-.5c4.8-.5 10.5-.6 14.8-.3 2.4.2 5.5 1.1 8.2 2.7 5 2.7 9.3 7.1 9.7 10.3.8 8.2-6.1 10.8-11.6 13.5-6.8 3.5-13.8 6.4-21.1 8.8-7.9 2.6-16.1 4.7-24.3 6.3-21.4 4.2-43 4.2-64.4-1.3-5.6-1.4-10 .8-12.2 6.4-2.4 6.1 1.6 9 6 11.4 2.7 1.4 6 2.1 9 2.9 17.7 3.9 35.6 4.5 53.6 1.8 5.5-.8 25.7-5.6 32.3-7.2.5-.2.8-.2 1.1-.3 6.8-1.9 13.5-4 19.9-6.8 6.9-3.1 13.7-6.6 19.8-11.6 12.5-10 15.5-23.1 9.3-34.5zM127.4 504.6c38.9-78.5 55.5-163.5 67.4-249.2"/><path fill="#010101" d="M452.1 463.1c-10.9-10.8-21.6-21.4-32.3-32.3-1-1-1.8-1.9-3.4-1.9h-25.6l7.9 7.9c9 9 17.5 17.5 26.2 26.1 2.1 2.1 2.4 3.1.2 5.3-6.3 6.1-12.4 12.2-18.5 18.3-4 4-7.9 8-11.9 11.9-1 1-2.4 1.8-2.7 3.9h24.1c1.8 0 2.7-1.1 3.7-2.1l32.3-32.3c1.9-1.9 1.8-2.9 0-4.8z"/><path d="M534.1 502c5.5 0 9.8-4.3 9.8-9.8v-1.1c0-5.5-4.3-9.8-9.8-9.8h-54.1c-5.5 0-9.8 4.3-9.8 9.8v1.1c0 5.5 4.3 9.8 9.8 9.8h54.1zM477.7 266.8c2.1-2.1 3.9-4 5.6-5.8 3.7-3.7 3.9-3.9 7.6-.2 8.2 8.2 11.3 18 7.6 29.1-3.9 11.6-11.7 18.5-24.1 20.1-10.5 1.3-18.7-2.6-25.7-10-1.9-1.9-2.4-3.5.2-5.6 2.3-2.1 4-4.8 6.3-7.6 5 8.7 11.3 12.4 19.9 10.3 6.6-1.4 10.6-6.1 11.7-12.5 1.3-8-2.2-13.8-9.1-17.8zM331.9 297.2c6.1.3 10.6-1.9 14-6.4 1.1-1.6 1.9-1.8 3.2-.2 1.1 1.4 2.6 2.6 3.7 3.9 4.2 4.2 4.2 4.2-.5 8.2-9.8 8.2-22.4 9.7-33 3.9-10.8-5.8-16.7-17.5-15-30.1 1-7.6 5.6-13 10.9-17.9 1.1-1.1 1.8-.3 2.6.3 1.8 1.8 3.4 3.7 5.3 5.3 2.1 1.8 2.4 2.9-.2 5-9.2 7.6-7.7 20.6 2.4 26.2 2.3 1.3 4.7 1.5 6.6 1.8z"/></svg>